<svg version="1.1" id="Layer_1" xmlns="http://www.w3.org/2000/svg" x="0" y="0" viewBox="0 0 868 187.6" style="enable-background:new 0 0 868 187.6" xml:space="preserve"><style>.st0{fill:#00934b}.st1{fill:#22d511}.st2{fill:#bef000}</style><path class="st0" d="M348 73.6h18.1v9.3c6.6-7.2 14-11.7 23.7-11.8 9.9-.1 17.4 4 22.5 13.1.7-.8 1.4-1.4 1.9-2.1 7.8-9.6 18.1-12.5 29.9-10.4 11.3 2 19.3 11.4 19.6 24.2.5 17 .1 33.9.1 51.2h-19.2c-.1-1.3-.2-2.6-.2-3.9v-36.7c0-2.1-.2-4.2-.4-6.2-.5-4.6-2.3-8.5-7-10-5-1.7-9.9-1.2-14.1 2.4-4.3 3.6-6.4 8.5-6.7 13.9-.5 10.4-.4 20.8-.6 31.3v9.4H396V108c0-2.6-.2-5.3-.5-7.9-.5-4.6-2.6-8.4-7.2-9.8-5-1.6-9.9-1.3-14.1 2.5-4.3 4-6.3 9.2-6.4 14.9-.3 11.4-.2 22.8-.3 34.2v5.3H348V73.6zM551.2 115H496c.8 8.2 5.7 14.2 13 16.4 9.8 2.9 17.5.1 25.3-9.7 5.2 2.5 10.5 5.1 16.2 7.9-5.7 9.6-13.3 16.2-24 19-21.8 5.6-42.9-5.9-48.7-26.6-6.1-21.7 6.2-44.4 27-49.6 27.6-7.1 50 13.2 46.4 42.6zm-19-14.4c-1.2-7.9-7.8-13.2-16.7-13.3-9.2-.2-16.6 5.2-18.1 13.3h34.8zM589.7 120.4c6.9-24.2 14.3-49.9 20.9-74.2 1.6-5.8 2.6-7.7 8.2-7.8 3.1 0 7.2-.1 8.9.2 4.8.8 4.4 3.3 7 12.5 5.8 20.5 11.7 41.1 17.5 61.6.6 2.1 1.3 4.1 2.4 7.8 4.4-17.4 8.4-33.1 12.4-48.8 2.4-9.4 5-18.7 7.1-28.2.9-4.1 2.5-4.9 5.9-5 4.2-.1 8.5.1 13.5.1-2.9 10.3-5.6 19.9-8.3 29.5-6.9 24.8-14 49.6-20.8 74.5-1 3.5-2.2 4.7-5.5 4.8-4.6 0-9.2-.1-14-.1-7.7-27.3-15.4-54.4-23.4-83-3.6 12.6-6.7 23.8-9.8 35-4.1 14.5-8.2 29.1-12.1 43.7-.9 3.2-2 4.5-5.1 4.5-13.9.1-13.4 0-13.4 0-8.2-29.1-21.1-73-29.3-102.1-.5-1.9-1-3.8-1.8-6.8 5.7 0 9.3-.1 14.5 0 1.3.1 4 1.1 4.6 4.5M230.6 147.2V39.8h20.3v88.3h45.6v19.1h-65.9zM310 147.2V73.7h19.3v73.5H310zM332.5 50c.1 6.9-5.8 12.7-12.8 12.8-6.9.1-12.8-5.7-12.9-12.7-.1-6.9 5.8-12.8 12.7-12.8 7.1 0 13 5.9 13 12.7z"/><path class="st0" d="M348 73.6h18.1v9.3c6.6-7.2 14-11.7 23.7-11.8 9.9-.1 17.4 4 22.5 13.1.7-.8 1.4-1.4 1.9-2.1 7.8-9.6 18.1-12.5 29.9-10.4 11.3 2 19.3 11.4 19.6 24.2.5 17 .1 33.9.1 51.2h-19.2c-.1-1.3-.2-2.6-.2-3.9v-36.7c0-2.1-.2-4.2-.4-6.2-.5-4.6-2.3-8.5-7-10-5-1.7-9.9-1.2-14.1 2.4-4.3 3.6-6.4 8.5-6.7 13.9-.5 10.4-.4 20.8-.6 31.3v9.4H396V108c0-2.6-.2-5.3-.5-7.9-.5-4.6-2.6-8.4-7.2-9.8-5-1.6-9.9-1.3-14.1 2.5-4.3 4-6.3 9.2-6.4 14.9-.3 11.4-.2 22.8-.3 34.2v5.3H348V73.6zM551.2 115H496c.8 8.2 5.7 14.2 13 16.4 9.8 2.9 17.5.1 25.3-9.7 5.2 2.5 10.5 5.1 16.2 7.9-5.7 9.6-13.3 16.2-24 19-21.8 5.6-42.9-5.9-48.7-26.6-6.1-21.7 6.2-44.4 27-49.6 27.6-7.1 50 13.2 46.4 42.6zm-19-14.4c-1.2-7.9-7.8-13.2-16.7-13.3-9.2-.2-16.6 5.2-18.1 13.3h34.8zM230.6 147.2V39.8h20.3v88.3h45.6v19.1h-65.9zM310 147.2V73.7h19.3v73.5H310zM332.5 50c.1 6.9-5.8 12.7-12.8 12.8-6.9.1-12.8-5.7-12.9-12.7-.1-6.9 5.8-12.8 12.7-12.8 7.1 0 13 5.9 13 12.7zM713.4 38.4c-2.7 0-5.3 1-7.2 2.9-2 1.9-3.1 4.5-3.1 7.3-.1 5.8 4.3 10.4 10 10.5h.2c2.5 0 5.1-1.1 7-2.9 2-2 3.2-4.6 3.2-7.3 0-5.8-4.4-10.4-10.1-10.5zM847.6 123.2c-10.7 12.6-19.8 15.9-30.7 10.8-8.5-3.9-13.9-12.9-12.8-20.9h57.8v-.5c-.1-1.2-.1-2.3-.2-3.3-.1-2.1-.2-4.1-.4-6-1.3-11.5-6.3-21-14.3-26.8-8-5.8-18.4-7.7-29.9-5.3-15.4 3.1-24.9 13.6-28.2 31.1-2.2 11.6.1 22.9 6.4 31.8 6 8.5 15.3 14.1 26.1 15.7 1.8.3 3.6.4 5.3.4 14.1 0 27.9-8.2 33.5-20.5l.2-.4-12.5-6.2-.3.1zm-42.7-23c3-11.4 11-17 23-16.3 9.6.6 16.3 6.6 17.8 16.3h-40.8zM765.5 72c-5.3 2.1-9.9 5.6-13.7 10.6V72.2h-9.3c-2 0-3.2.3-3.9 1.1-.7.7-1 1.9-1 3.8.1 15.7.1 31.7.1 47.1V143c0 .8.1 1.7.1 2.5 0 .4.1.8.1 1.1v.5h14.7v-39.9c0-7.2 2.6-13.3 7.2-17.1 4.6-3.8 11-5.2 18-4 .4.1.8.1 1.2.1h1.1l4.5-13.9-.5-.2c-6.8-2.3-12.7-2.4-18.6-.1zM706 72.6h14.5v74.7H706zM26.2 61.2l.5.2 4.7 2.1 5.2 2.3C42.4 53.5 52.3 43.2 65.4 37l-2.3-5.2-3.3-7.6c-3.7-7.4-10.4-4.9-12.8-3.7-10.6 6.6-19.4 15.3-26 25.4-.1.1-.1.2-.1.4-4.2 9.8 3.2 13.9 5.3 14.9z"/><path class="st1" d="m36.7 65.7 8.4 3.7 7.3 3.2 5.8 2.6c3.5-7.1 9.3-13.1 16.8-16.8l-2.6-5.8-3.2-7.3-3.7-8.4c-13.1 6.2-23 16.6-28.8 28.8z"/><path class="st2" d="m58.1 75.2 12.1 5.3 11.2 4.9c1.5-.1 2.8-1.1 3.4-2.5.2-.5.3-.9.3-1.4l-4.9-11.1-5.3-12.1c-7.5 3.8-13.3 9.8-16.8 16.9z"/><path class="st0" d="M178.7 75.9c-3.9-9.7-11.9-7.5-14.1-6.6l-.6.2-4.9 1.9-5.3 2.1c4.9 13.6 4.6 28 0 40.8l5.3 2.1 6.8 2.6c7.9 3.3 11.2-2.3 12.4-5.3 3-12.2 3.2-25.1.4-37.8z"/><path class="st1" d="m153.9 73.5-8.5 3.3-7.5 2.9L132 82c2.7 8 2.6 16.3 0 23.8l5.8 2.3 7.5 2.9 8.5 3.3c4.7-12.8 5-27.1.1-40.8z"/><path class="st2" d="m132.1 82-12.3 4.8-11.4 4.5c-1 1.1-1.3 2.7-.7 4.2.2.4.4.8.7 1.1l11.4 4.4 12.3 4.8c2.5-7.5 2.7-15.8 0-23.8z"/><path class="st0" d="m28.2 116.4 5.3-2.1c-4.9-13.6-4.6-28 0-40.8l-5.3-2.1-6.9-2.7c-8-3.2-11.2 2.7-12.3 5.6-2.9 12-3.1 24.7-.4 37.2v.1c3.9 10 12 7.7 14.2 6.9l5.4-2.1z"/><path class="st1" d="M33.5 114.3 42 111l7.4-2.9 5.9-2.3c-2.7-8-2.6-16.3 0-23.8l-5.9-2.3-7.4-2.8-8.5-3.3c-4.6 12.8-4.9 27.1 0 40.7z"/><path class="st2" d="m55.4 105.8 12.3-4.8L79 96.6c1-1.1 1.3-2.7.7-4.2-.2-.5-.5-.9-.8-1.2l-11.3-4.4L55.3 82c-2.5 7.6-2.6 15.9.1 23.8z"/><path class="st0" d="m36.8 122.1-5.2 2.3-5.4 2.4s-9.5 5.1-5.1 14.9v.1c6.9 10.7 16 19.4 26.4 25.8 2.7 1.3 9.5 3.5 12.9-4.8l2.9-6.6 2.3-5.2c-12.2-5.9-22.6-15.8-28.8-28.9z"/><path class="st1" d="m72.6 135.2 2.5-5.7C68 126 62 120.2 58.3 112.7l-5.8 2.5-7.3 3.2-8.4 3.7c6.2 13.1 16.6 23 28.9 28.8l3.7-8.4 3.2-7.3z"/><path class="st2" d="m75.1 129.4 5.3-12.1 4.9-11.1c-.1-1.5-1-2.9-2.5-3.5-.4-.2-.9-.3-1.4-.3l-11.1 4.9-12.1 5.3c3.8 7.6 9.8 13.3 16.9 16.8z"/><path class="st0" d="m150.7 65.8 5.2-2.3 5.8-2.6-.5.1c2.1-1 9.4-5 5.3-14.6-7-11-16.4-19.9-27.2-26.4-7.6-3.9-12.3 5-12.3 5l-2.9 6.7-2.3 5.2c12.3 5.8 22.7 15.7 28.9 28.9z"/><path class="st1" d="m114.9 52.5-2.5 5.8c7.1 3.5 13.1 9.3 16.9 16.9l5.8-2.5 7.3-3.2 8.3-3.7c-6.2-13.1-16.6-23.1-28.9-28.9l-3.7 8.4-3.2 7.2z"/><path class="st2" d="m112.4 58.3-5.3 12.1-4.9 11.3c.1 1.5 1 2.8 2.5 3.4.4.2.9.3 1.4.3l11.2-4.9 12.1-5.3c-3.9-7.6-9.9-13.3-17-16.9z"/><path class="st0" d="m116.2 159.3-2.1-5.3c-13.7 4.9-28 4.6-40.8 0l-2.1 5.3-3.4 8.8s-1.7 6.9 8.3 10.7c.2.1.4.2.6.2 11.5 2.4 23.6 2.4 35.5-.3 1.7-.5 10-3.1 7-11.8l-3-7.6z"/><path class="st1" d="m114.2 154-3.3-8.5-2.9-7.5-2.3-5.8c-8 2.7-16.3 2.6-23.8 0l-2.3 5.8-2.9 7.5-3.3 8.5c12.8 4.6 27.1 4.9 40.8 0z"/><path class="st2" d="m105.6 132.2-4.8-12.3-4.4-11.3c-1.1-1-2.8-1.3-4.3-.7-.4.2-.8.4-1.1.7l-4.4 11.3-4.8 12.3c7.6 2.5 15.8 2.7 23.8 0z"/><path class="st0" d="m71.1 28.4 2.1 5.3c13.7-4.9 28-4.6 40.8-.1l2.1-5.3 2.1-5.4c.8-2.2 3.1-10.4-6.9-14.2-.1 0-.1-.1-.2-.1-11.9-2.4-24.4-2.4-36.7.5-2.8.9-9.4 4.1-5.9 12.6l2.6 6.7z"/><path class="st1" d="m73.2 33.7 3.3 8.5 2.9 7.4 2.3 5.9c8-2.7 16.3-2.6 23.8 0l2.3-5.9 2.9-7.4 3.3-8.5c-12.8-4.6-27.1-4.9-40.8 0z"/><path class="st2" d="m81.7 55.5 4.8 12.3L91 79.3c1.1.9 2.7 1.2 4.1.6.5-.2.9-.5 1.2-.8l4.4-11.4 4.8-12.3c-7.5-2.4-15.8-2.6-23.8.1z"/><path class="st0" d="m161.2 126.6-.6-.2-4.7-2.1-5.2-2.3c-5.8 12.3-15.7 22.6-28.9 28.9l2.3 5.2 2.9 6.6c3.8 9.2 11.6 5.6 13.6 4.4a83.23 83.23 0 0 0 25.6-25.2c.1-.1.1-.2.2-.4 4.3-9.8-3.1-13.9-5.2-14.9z"/><path class="st1" d="m150.7 122-8.4-3.7-7.4-3.2-5.7-2.5c-3.5 7.1-9.3 13-16.8 16.7l2.5 5.7 3.2 7.4 3.7 8.4c13.1-6.1 23.1-16.5 28.9-28.8z"/><path class="st2" d="m129.2 112.7-12.1-5.3-11-4.8c-.4 0-.9.1-1.3.3-1 .4-1.8 1.2-2.2 2.2-.2.4-.3.8-.3 1.3l4.8 11 5.3 12.1c7.5-3.8 13.3-9.7 16.8-16.8z"/></svg>